<svg width="28" height="31" viewBox="0 0 28 31" fill="none" xmlns="http://www.w3.org/2000/svg">
<path d="M27.107 22.7056C26.3835 24.3109 26.0375 25.027 25.1043 26.446C23.8042 28.4263 21.9692 30.8945 19.6992 30.9155C17.6808 30.9338 17.1617 29.6014 14.4225 29.6171C11.6832 29.6329 11.1117 30.9391 9.09333 30.9207C6.82328 30.8997 5.08534 28.6729 3.78517 26.6899C0.146786 21.1502 -0.230685 14.648 2.01054 11.1935C3.6043 8.73584 6.11814 7.29846 8.48257 7.29846C10.8889 7.29846 12.4041 8.62042 14.3936 8.62042C16.3255 8.62042 17.5025 7.29846 20.2837 7.29846C22.3886 7.29846 24.6168 8.44469 26.2053 10.4276C21.002 13.2788 21.8487 20.7175 27.107 22.7056Z" fill="#1B1C20"/>
<path d="M18.1715 5.08631C19.1833 3.78795 19.9514 1.95189 19.6709 0.0791016C18.0195 0.191888 16.0876 1.24369 14.9578 2.61549C13.9328 3.86139 13.0888 5.70532 13.4164 7.49942C15.2225 7.5545 17.0889 6.47647 18.1715 5.08631Z" fill="#1B1C20"/>
</svg>
