<svg width="32" height="33" viewBox="0 0 32 33" fill="none" xmlns="http://www.w3.org/2000/svg">
<path d="M29.3336 6.80211V22.8956C29.3336 24.1756 28.2936 25.3756 27.0136 25.5356L26.5736 25.589C23.6669 25.9756 19.1868 27.4556 16.6268 28.8689C16.2801 29.0689 15.7069 29.0689 15.3469 28.8689L15.2935 28.8423C12.7334 27.4423 8.26683 25.9756 5.37347 25.589L4.98675 25.5356C3.70674 25.3756 2.66675 24.1756 2.66675 22.8956V6.78877C2.66675 5.20209 3.96005 4.00209 5.54673 4.13543C8.34675 4.3621 12.5868 5.77547 14.9601 7.25549L15.2935 7.45544C15.6801 7.69544 16.3202 7.69544 16.7069 7.45544L16.9335 7.30879C17.7735 6.78879 18.8402 6.26878 20.0002 5.80211C21.7469 5.10877 23.6936 4.54883 25.3336 4.28216C25.6936 4.21549 26.0403 4.17544 26.3603 4.14877H26.4403C28.027 4.01544 29.3336 5.2021 29.3336 6.80211Z" stroke="#EC4A0A" stroke-opacity="0.8" stroke-width="2.00001" stroke-linecap="round" stroke-linejoin="round"/>
<path opacity="0.4" d="M16 7.89545V27.8956" stroke="#EC4A0A" stroke-opacity="0.8" stroke-width="2.00001" stroke-linecap="round" stroke-linejoin="round"/>
<path opacity="0.4" d="M25.3336 4.28214V11.2421L22.6669 9.46878L20.0002 11.2421V5.80208C21.7469 5.10875 23.6936 4.5488 25.3336 4.28214Z" stroke="#EC4A0A" stroke-opacity="0.8" stroke-width="2.00001" stroke-linecap="round" stroke-linejoin="round"/>
</svg>
