<svg width="102" height="31" viewBox="0 0 102 31" fill="none" xmlns="http://www.w3.org/2000/svg">
<path d="M3.92909 8.27463C5.05886 8.27463 6.08488 7.76738 6.40768 6.84512V8.13629H7.31841V4.55098H4.19424V5.33491H6.40768C6.28087 6.57997 5.40471 7.43306 4.04437 7.43306C2.47652 7.43306 1.41591 6.31482 1.41591 4.5164C1.41591 2.71798 2.46499 1.5882 3.95214 1.5882C5.41624 1.5882 6.26934 2.46436 6.35003 3.79011L7.30689 3.73247C7.18007 1.87641 5.99266 0.735107 3.94062 0.735107C1.93469 0.735107 0.389893 2.26837 0.389893 4.50487C0.389893 6.76442 1.87705 8.27463 3.92909 8.27463Z" fill="#1B1C20"/>
<path d="M12.4425 6.3494C12.235 7.1218 11.7393 7.52529 10.8977 7.52529C9.99848 7.52529 9.29525 6.83359 9.24914 5.85368H13.261V5.47325C13.261 4.10138 12.4425 2.96007 10.84 2.96007C9.38748 2.96007 8.29229 4.10138 8.29229 5.69229C8.29229 7.26014 9.38748 8.27463 10.8862 8.27463C12.1427 8.27463 12.9843 7.58293 13.2379 6.44163L12.4425 6.3494ZM9.27219 5.23115C9.38748 4.40111 9.92931 3.68636 10.84 3.68636C11.7969 3.68636 12.2465 4.42417 12.2811 5.23115H9.27219Z" fill="#1B1C20"/>
<path d="M14.4283 6.9604C14.4283 7.94031 14.9356 8.27463 15.6503 8.27463C16.2037 8.27463 16.5726 8.12476 16.9415 7.84808V7.2025C16.6533 7.36389 16.319 7.50223 15.9962 7.50223C15.5581 7.50223 15.3736 7.29472 15.3736 6.84512V3.79011H16.7916V3.09841H15.3736V1.70349H14.8318L14.6819 2.40671C14.5667 2.8909 14.4629 3.12147 13.9903 3.2137L13.6675 3.27134V3.79011H14.4283V6.9604Z" fill="#1B1C20"/>
<path d="M19.8507 3.09841V8.13629H20.8075V3.09841H19.8507ZM19.8276 1.95711H20.8191V0.873447H19.8276V1.95711Z" fill="#1B1C20"/>
<path d="M22.2865 6.9604C22.2865 7.94031 22.7937 8.27463 23.5085 8.27463C24.0619 8.27463 24.4308 8.12476 24.7997 7.84808V7.2025C24.5115 7.36389 24.1771 7.50223 23.8544 7.50223C23.4163 7.50223 23.2318 7.29472 23.2318 6.84512V3.79011H24.6498V3.09841H23.2318V1.70349H22.69L22.5401 2.40671C22.4248 2.8909 22.3211 3.12147 21.8484 3.2137L21.5256 3.27134V3.79011H22.2865V6.9604Z" fill="#1B1C20"/>
<path d="M28.366 5.62312C28.366 4.49334 28.9309 3.70941 29.9454 3.70941C30.9714 3.70941 31.5478 4.49334 31.5478 5.62312C31.5478 6.74136 30.9714 7.53682 29.9454 7.53682C28.9309 7.53682 28.366 6.74136 28.366 5.62312ZM32.5277 5.62312C32.5277 4.05526 31.4325 2.96007 29.9454 2.96007C28.4697 2.96007 27.3861 4.05526 27.3861 5.62312C27.3861 7.19097 28.4697 8.27463 29.9454 8.27463C31.4325 8.27463 32.5277 7.19097 32.5277 5.62312Z" fill="#1B1C20"/>
<path d="M34.4749 5.24268C34.4749 4.32042 35.0744 3.72094 35.8352 3.72094C36.6307 3.72094 37.0342 4.25125 37.0342 5.09281V8.13629H37.991V5.01211C37.991 3.83623 37.4607 2.96007 36.1465 2.96007C35.3972 2.96007 34.717 3.38662 34.4749 3.99762V3.09841H33.5181V8.13629H34.4749V5.24268Z" fill="#1B1C20"/>
<path d="M6.29773 11.6975L0.389893 26.467H3.95335L5.19587 23.2787H11.1506L12.4166 26.467H16.2144L10.2597 11.6975H6.29773ZM8.12634 15.7532H8.22012L10.1191 20.6061H6.2274L8.12634 15.7532Z" fill="#1B1C20"/>
<path d="M20.7318 21.1453C20.7318 19.4808 21.693 18.4258 23.0996 18.4258C24.6938 18.4258 25.4674 19.5746 25.4674 21.2625C25.4674 22.9739 24.6938 24.1227 23.0996 24.1227C21.693 24.1227 20.7318 23.0677 20.7318 21.3797V21.1453ZM20.7318 24.615C21.2475 25.8341 22.4432 26.7484 24.2483 26.7484C27.296 26.7484 28.8902 24.3337 28.8902 21.2625C28.8902 18.2148 27.296 15.7767 24.2483 15.7767C22.4432 15.7767 21.2475 16.691 20.7318 17.9335V16.058H17.3559V30.2649H20.7318V24.615Z" fill="#1B1C20"/>
<path d="M33.8731 21.1453C33.8731 19.4808 34.8343 18.4258 36.2409 18.4258C37.8351 18.4258 38.6088 19.5746 38.6088 21.2625C38.6088 22.9739 37.8351 24.1227 36.2409 24.1227C34.8343 24.1227 33.8731 23.0677 33.8731 21.3797V21.1453ZM33.8731 24.615C34.3889 25.8341 35.5845 26.7484 37.3897 26.7484C40.4374 26.7484 42.0316 24.3337 42.0316 21.2625C42.0316 18.2148 40.4374 15.7767 37.3897 15.7767C35.5845 15.7767 34.3889 16.691 33.8731 17.9335V16.058H30.4972V30.2649H33.8731V24.615Z" fill="#1B1C20"/>
<path d="M47.2181 21.2156C47.2181 24.8025 50.0314 26.7484 53.9699 26.7484C57.3458 26.7484 59.995 25.1776 59.995 22.1299C59.995 19.7152 58.6118 18.2148 55.5876 17.6756L52.8212 17.1833C51.7428 16.9723 51.0864 16.6675 51.0864 15.8236C51.0864 14.8155 51.9303 14.2059 53.4307 14.2059C55.1421 14.2059 56.3378 15.0499 56.4315 16.7848L59.7137 16.691C59.6433 13.4089 57.4631 11.4161 53.4542 11.4161C49.8673 11.4161 47.5932 13.2213 47.5932 16.1283C47.5932 18.6368 49.2577 19.9497 51.6021 20.3951L54.3685 20.8874C55.6579 21.1453 56.5253 21.3797 56.5253 22.3644C56.5253 23.349 55.5407 23.9586 53.9699 23.9586C52.1413 23.9586 50.6175 23.138 50.4768 21.0984L47.2181 21.2156Z" fill="#1B1C20"/>
<path d="M62.1917 23.6772C62.1917 26.0216 63.7156 26.7484 65.4035 26.7484C66.7633 26.7484 67.6542 26.4202 68.4278 25.8341V23.6069C67.7948 23.8882 67.2556 24.0289 66.7398 24.0289C65.9428 24.0289 65.5208 23.6538 65.5208 22.7629V18.4258H68.2871V16.058H65.5208V13.1744H63.4343L63.0826 14.5576C62.8247 15.5188 62.52 16.058 61.4884 16.2456L60.7382 16.3628V18.4258H62.1917V23.6772Z" fill="#1B1C20"/>
<path d="M72.7579 21.2625C72.7579 19.5277 73.4378 18.3321 74.9382 18.3321C76.4152 18.3321 77.1419 19.5277 77.1419 21.2625C77.1419 22.9974 76.4152 24.193 74.9382 24.193C73.4378 24.193 72.7579 22.9974 72.7579 21.2625ZM80.5647 21.2625C80.5647 18.0507 78.2672 15.7767 74.9382 15.7767C71.6092 15.7767 69.3351 18.0507 69.3351 21.2625C69.3351 24.4978 71.6092 26.7484 74.9382 26.7484C78.2672 26.7484 80.5647 24.4978 80.5647 21.2625Z" fill="#1B1C20"/>
<path d="M89.9056 16.1987C89.6243 15.9642 89.0851 15.7767 88.4521 15.7767C87.0455 15.7767 85.967 16.7848 85.5685 17.957V16.058H82.1926V26.467H85.5685V21.5439C85.5685 19.7387 86.5063 18.9416 87.9129 18.9416C88.6396 18.9416 89.1554 19.0588 89.6946 19.3636L89.9056 16.1987Z" fill="#1B1C20"/>
<path d="M98.3934 22.7864C98.0183 23.7476 97.2915 24.193 96.1193 24.193C94.8064 24.193 93.7749 23.3959 93.6812 22.0127H101.183V20.9812C101.183 18.1445 99.378 15.7767 95.9318 15.7767C92.7434 15.7767 90.3521 18.1445 90.3521 21.4266C90.3521 24.7322 92.6965 26.7484 96.0021 26.7484C98.7216 26.7484 100.574 25.4121 101.113 23.0443L98.3934 22.7864ZM93.728 20.2076C93.9156 19.1057 94.5486 18.2383 95.9083 18.2383C97.1977 18.2383 97.8541 19.176 97.9245 20.2076H93.728Z" fill="#1B1C20"/>
</svg>
