<svg width="117" height="31" viewBox="0 0 117 31" fill="none" xmlns="http://www.w3.org/2000/svg">
<path d="M4.38685 8.27475C5.51663 8.27475 6.54265 7.76751 6.86544 6.84524V8.13641H7.77618V4.5511H4.652V5.33503H6.86544C6.73863 6.58009 5.86248 7.43318 4.50213 7.43318C2.93428 7.43318 1.87368 6.31494 1.87368 4.51652C1.87368 2.7181 2.92275 1.58833 4.40991 1.58833C5.874 1.58833 6.7271 2.46448 6.8078 3.79023L7.76465 3.73259C7.63784 1.87653 6.45042 0.735229 4.39838 0.735229C2.39245 0.735229 0.847656 2.2685 0.847656 4.50499C0.847656 6.76454 2.33481 8.27475 4.38685 8.27475Z" fill="#1B1C20"/>
<path d="M12.9002 6.34952C12.6927 7.12192 12.197 7.52541 11.3555 7.52541C10.4562 7.52541 9.75301 6.83371 9.7069 5.8538H13.7188V5.47337C13.7188 4.1015 12.9002 2.9602 11.2978 2.9602C9.84524 2.9602 8.75005 4.1015 8.75005 5.69241C8.75005 7.26026 9.84524 8.27475 11.3439 8.27475C12.6005 8.27475 13.4421 7.58305 13.6957 6.44175L12.9002 6.34952ZM9.72996 5.23128C9.84524 4.40124 10.3871 3.68648 11.2978 3.68648C12.2547 3.68648 12.7043 4.42429 12.7388 5.23128H9.72996Z" fill="#1B1C20"/>
<path d="M14.8861 6.96052C14.8861 7.94043 15.3933 8.27475 16.1081 8.27475C16.6615 8.27475 17.0304 8.12488 17.3993 7.8482V7.20262C17.1111 7.36401 16.7767 7.50235 16.4539 7.50235C16.0159 7.50235 15.8314 7.29484 15.8314 6.84524V3.79023H17.2494V3.09854H15.8314V1.70361H15.2896L15.1397 2.40684C15.0244 2.89103 14.9207 3.12159 14.448 3.21382L14.1252 3.27146V3.79023H14.8861V6.96052Z" fill="#1B1C20"/>
<path d="M20.3085 3.09854V8.13641H21.2653V3.09854H20.3085ZM20.2854 1.95723H21.2768V0.873569H20.2854V1.95723Z" fill="#1B1C20"/>
<path d="M22.7443 6.96052C22.7443 7.94043 23.2515 8.27475 23.9663 8.27475C24.5196 8.27475 24.8885 8.12488 25.2574 7.8482V7.20262C24.9692 7.36401 24.6349 7.50235 24.3121 7.50235C23.874 7.50235 23.6896 7.29484 23.6896 6.84524V3.79023H25.1076V3.09854H23.6896V1.70361H23.1478L22.9979 2.40684C22.8826 2.89103 22.7788 3.12159 22.3062 3.21382L21.9834 3.27146V3.79023H22.7443V6.96052Z" fill="#1B1C20"/>
<path d="M28.8237 5.62324C28.8237 4.49346 29.3886 3.70954 30.4031 3.70954C31.4291 3.70954 32.0056 4.49346 32.0056 5.62324C32.0056 6.74149 31.4291 7.53694 30.4031 7.53694C29.3886 7.53694 28.8237 6.74149 28.8237 5.62324ZM32.9855 5.62324C32.9855 4.05539 31.8903 2.9602 30.4031 2.9602C28.9275 2.9602 27.8438 4.05539 27.8438 5.62324C27.8438 7.19109 28.9275 8.27475 30.4031 8.27475C31.8903 8.27475 32.9855 7.19109 32.9855 5.62324Z" fill="#1B1C20"/>
<path d="M34.9327 5.2428C34.9327 4.32054 35.5321 3.72107 36.293 3.72107C37.0885 3.72107 37.492 4.25137 37.492 5.09294V8.13641H38.4488V5.01224C38.4488 3.83635 37.9185 2.9602 36.6043 2.9602C35.8549 2.9602 35.1748 3.38674 34.9327 3.99774V3.09854H33.9758V8.13641H34.9327V5.2428Z" fill="#1B1C20"/>
<path d="M7.91596 26.523C9.85628 26.523 11.5194 25.8763 12.3048 24.421V26.2458H15.3769V18.7848H8.58583V21.3257H12.0738C11.5656 22.7579 10.2028 23.5663 8.60893 23.5663C5.95254 23.5663 4.4511 21.7415 4.4511 18.9696C4.4511 16.2671 5.90634 14.5115 8.33174 14.5115C10.4338 14.5115 11.6811 15.6896 11.8659 17.5144L15.2845 17.3989C14.9612 13.7262 12.4896 11.4163 8.26244 11.4163C4.10462 11.4163 0.847656 14.4884 0.847656 18.9696C0.847656 23.474 3.87363 26.523 7.91596 26.523Z" fill="#1B1C20"/>
<path d="M20.3032 21.1179C20.3032 19.4085 20.973 18.2305 22.4514 18.2305C23.9066 18.2305 24.6227 19.4085 24.6227 21.1179C24.6227 22.8272 23.9066 24.0052 22.4514 24.0052C20.973 24.0052 20.3032 22.8272 20.3032 21.1179ZM27.9951 21.1179C27.9951 17.9533 25.7314 15.7127 22.4514 15.7127C19.1713 15.7127 16.9307 17.9533 16.9307 21.1179C16.9307 24.3055 19.1713 26.523 22.4514 26.523C25.7314 26.523 27.9951 24.3055 27.9951 21.1179Z" fill="#1B1C20"/>
<path d="M32.4617 21.1179C32.4617 19.4085 33.1316 18.2305 34.61 18.2305C36.0652 18.2305 36.7813 19.4085 36.7813 21.1179C36.7813 22.8272 36.0652 24.0052 34.61 24.0052C33.1316 24.0052 32.4617 22.8272 32.4617 21.1179ZM40.1537 21.1179C40.1537 17.9533 37.89 15.7127 34.61 15.7127C31.3299 15.7127 29.0893 17.9533 29.0893 21.1179C29.0893 24.3055 31.3299 26.523 34.61 26.523C37.89 26.523 40.1537 24.3055 40.1537 21.1179Z" fill="#1B1C20"/>
<path d="M51.1821 19.2237C51.1821 18.6925 51.0435 18.2305 50.8125 17.8147C51.3207 17.6761 51.9212 17.6068 52.4063 17.6068V15.0428C51.2976 15.0428 50.2119 15.7358 49.6113 16.5673C48.7567 16.013 47.5786 15.7127 46.3313 15.7127C43.5132 15.7127 41.5036 17.0524 41.5036 19.2237C41.5036 20.3325 42.0348 21.2333 42.9588 21.8339C41.8963 22.2266 41.2495 22.9889 41.2495 23.9359C41.2495 24.8137 41.7808 25.5991 42.7047 25.8993C41.5267 26.0148 40.7182 26.754 40.7182 27.7011C40.7182 29.6183 43.1898 30.2651 46.0772 30.2651C49.3572 30.2651 52.4063 29.1332 52.4063 26.5692C52.4063 24.883 51.2283 23.6587 48.9415 23.6587H44.7374C44.0676 23.6587 43.7904 23.3585 43.7904 22.9658C43.7904 22.7117 43.9059 22.5269 44.0676 22.3883C44.7374 22.5962 45.4997 22.7117 46.3313 22.7117C49.1493 22.7117 51.1821 21.3719 51.1821 19.2237ZM43.5594 27.3084C43.5594 26.7771 43.9752 26.523 44.5064 26.523H48.133C48.8953 26.523 49.311 26.7078 49.311 27.2622C49.311 28.0245 47.9482 28.4171 46.1003 28.4171C44.5988 28.4171 43.5594 28.1169 43.5594 27.3084ZM47.7403 19.2237C47.7403 20.2632 47.1628 20.8638 46.3544 20.8638C45.569 20.8638 44.9915 20.2632 44.9915 19.2237C44.9915 18.2074 45.569 17.6299 46.3544 17.6299C47.1628 17.6299 47.7403 18.2074 47.7403 19.2237Z" fill="#1B1C20"/>
<path d="M53.5102 11.6934V26.2458H56.8364V11.6934H53.5102Z" fill="#1B1C20"/>
<path d="M66.3597 22.6193C65.9902 23.5663 65.2741 24.0052 64.1191 24.0052C62.8256 24.0052 61.8092 23.2199 61.7168 21.857H69.1085V20.8407C69.1085 18.0457 67.3299 15.7127 63.9343 15.7127C60.7929 15.7127 58.4368 18.0457 58.4368 21.2795C58.4368 24.5365 60.7467 26.523 64.0036 26.523C66.6831 26.523 68.5079 25.2064 69.0392 22.8734L66.3597 22.6193ZM61.763 20.0784C61.9478 18.9927 62.5715 18.1381 63.9112 18.1381C65.1817 18.1381 65.8285 19.062 65.8978 20.0784H61.763Z" fill="#1B1C20"/>
<path d="M78.4752 18.6925V14.5115H80.993C82.9102 14.5115 83.6956 15.2507 83.6956 16.6135C83.6956 17.9764 82.9102 18.6925 80.993 18.6925H78.4752ZM78.4752 21.5105H81.1316C84.8967 21.5105 87.0911 19.7319 87.0911 16.5904C87.0911 13.449 84.8967 11.6934 81.1316 11.6934H74.9872V26.2458H78.4752V21.5105Z" fill="#1B1C20"/>
<path d="M88.4069 11.6934V26.2458H91.7331V11.6934H88.4069Z" fill="#1B1C20"/>
<path d="M99.9398 21.9032C99.9398 23.3585 98.9696 24.2824 97.7454 24.2824C97.0293 24.2824 96.5673 23.9128 96.5673 23.3123C96.5673 22.5038 97.2141 22.2497 98.2535 22.0418L99.9398 21.6953V21.9032ZM103.22 19.7088C103.22 16.9138 101.303 15.7127 98.6231 15.7127C95.6895 15.7127 94.0495 17.2372 93.703 19.4316L96.7983 19.6626C96.9831 18.8079 97.4682 18.2074 98.4383 18.2074C99.4547 18.2074 99.9398 18.7848 99.9398 19.755V19.9398L97.0755 20.448C94.8118 20.8869 93.3335 21.7184 93.3335 23.6818C93.3335 25.4374 94.627 26.4768 96.6828 26.4768C98.2766 26.4768 99.5471 25.8532 100.125 24.6751C100.425 25.8301 101.326 26.4768 102.55 26.4768C103.566 26.4768 104.213 26.1765 104.721 25.807V24.0283C104.421 24.1669 104.167 24.2131 103.867 24.2131C103.451 24.2131 103.22 23.9821 103.22 23.4509V19.7088Z" fill="#1B1C20"/>
<path d="M110.245 29.9879L116.135 15.9899H112.855L110.337 22.3883H110.245L107.773 15.9899H104.262L108.466 26.3382L106.965 29.9879H110.245Z" fill="#1B1C20"/>
</svg>
