<svg width="10" height="17" viewBox="0 0 10 17" fill="none" xmlns="http://www.w3.org/2000/svg">
<path d="M6.91115 2.99208H9.09362C9.29441 2.99208 9.45737 2.83852 9.45737 2.64932V0.59276C9.45737 0.403556 9.29441 0.25 9.09362 0.25H6.91115C4.7054 0.25 2.90996 1.94118 2.90996 4.02036V6.41967H0.363745C0.162958 6.41967 0 6.57323 0 6.76243V8.81899C0 9.00819 0.162958 9.16175 0.363745 9.16175H2.90996V16.3597C2.90996 16.5489 3.07292 16.7025 3.2737 16.7025H5.45617C5.65696 16.7025 5.81992 16.5489 5.81992 16.3597V9.16175H8.36613C8.52254 9.16175 8.66149 9.06715 8.71169 8.9273L9.43918 6.87074C9.47628 6.76654 9.45737 6.65138 9.38898 6.56157C9.31987 6.47246 9.21075 6.41967 9.09362 6.41967H5.81992V4.02036C5.81992 3.45343 6.30952 2.99208 6.91115 2.99208Z" fill="#383A47"/>
</svg>
