<svg width="17" height="17" viewBox="0 0 17 17" fill="none" xmlns="http://www.w3.org/2000/svg">
<path d="M2.01308 4.27617C3.12488 4.27617 4.02617 3.37488 4.02617 2.26308C4.02617 1.15129 3.12488 0.25 2.01308 0.25C0.901288 0.25 0 1.15129 0 2.26308C0 3.37488 0.901288 4.27617 2.01308 4.27617Z" fill="#383A47"/>
<path d="M3.69065 5.62183H0.335514C0.15031 5.62183 0 5.77214 0 5.95734V16.0228C0 16.208 0.15031 16.3583 0.335514 16.3583H3.69065C3.87586 16.3583 4.02617 16.208 4.02617 16.0228V5.95734C4.02617 5.77214 3.87586 5.62183 3.69065 5.62183Z" fill="#383A47"/>
<path d="M13.6897 5.06151C12.2557 4.57032 10.4621 5.00179 9.3864 5.77549C9.3495 5.63122 9.21798 5.52385 9.06163 5.52385H5.70649C5.52128 5.52385 5.37097 5.67416 5.37097 5.85936V15.9248C5.37097 16.11 5.52128 16.2603 5.70649 16.2603H9.06163C9.24683 16.2603 9.39714 16.11 9.39714 15.9248V8.6911C9.93933 8.22407 10.6379 8.0751 11.2096 8.31801C11.7639 8.5522 12.0813 9.12391 12.0813 9.88553V15.9248C12.0813 16.11 12.2316 16.2603 12.4168 16.2603H15.7719C15.9571 16.2603 16.1074 16.11 16.1074 15.9248V9.20981C16.0692 6.45255 14.7721 5.43192 13.6897 5.06151Z" fill="#383A47"/>
</svg>
