<svg width="17" height="15" viewBox="0 0 17 15" fill="none" xmlns="http://www.w3.org/2000/svg">
<path d="M16.5821 1.96609C16.4718 1.84154 16.2942 1.81022 16.1485 1.88704C16.0578 1.93477 15.8874 1.99741 15.6851 2.05931C15.9404 1.71029 16.1456 1.3195 16.2362 0.968232C16.2754 0.816838 16.2181 0.65724 16.0934 0.567C15.9686 0.477506 15.8026 0.477506 15.6779 0.567C15.4814 0.707953 14.533 1.13156 13.9334 1.26878C12.5782 0.0479345 11.0012 -0.0788487 9.36183 0.905586C8.02916 1.70581 7.73913 3.33311 7.79569 4.325C4.74533 4.02296 2.84928 2.36583 1.78198 0.994334C1.7073 0.898128 1.58694 0.847415 1.47383 0.854873C1.35491 0.863822 1.2476 0.931688 1.1867 1.03684C0.682052 1.91314 0.542114 2.88191 0.783562 3.83875C0.915524 4.3608 1.1461 4.82095 1.41365 5.19384C1.28531 5.12896 1.16132 5.04767 1.04459 4.95072C0.937276 4.85973 0.787187 4.84258 0.6603 4.90299C0.534138 4.96489 0.453656 5.09615 0.453656 5.24008C0.453656 6.88304 1.4528 7.97934 2.38596 8.55211C2.23515 8.53346 2.07781 8.49916 1.91902 8.44919C1.7827 8.40668 1.63479 8.44919 1.54053 8.55956C1.44627 8.66919 1.4238 8.82581 1.48253 8.9593C2.00675 10.1518 3.00009 10.9722 4.22908 11.2697C3.15598 11.9178 1.71962 12.2355 0.404351 12.0797C0.233961 12.0551 0.0715455 12.1662 0.0178905 12.3347C-0.0357645 12.5033 0.0345671 12.6882 0.184656 12.7747C2.18004 13.927 3.98401 14.3386 5.5429 14.3386C7.81164 14.3386 9.56268 13.4676 10.6285 12.7389C13.502 10.7775 15.2929 7.25593 15.0435 4.105C15.5039 3.75523 16.1927 3.10938 16.6198 2.41505C16.7082 2.27484 16.6923 2.08989 16.5821 1.96609Z" fill="#383A47"/>
</svg>
