<svg width="33" height="33" viewBox="0 0 33 33" fill="none" xmlns="http://www.w3.org/2000/svg">
<path d="M22.7747 24.9978H17.4413L11.508 28.9445C10.628 29.5311 9.44132 28.9045 9.44132 27.8379V24.9978C5.44132 24.9978 2.77466 22.3312 2.77466 18.3312V10.3311C2.77466 6.3311 5.44132 3.66443 9.44132 3.66443H22.7747C26.7747 3.66443 29.4413 6.3311 29.4413 10.3311V18.3312C29.4413 22.3312 26.7747 24.9978 22.7747 24.9978Z" stroke="#DD2590" stroke-opacity="0.8" stroke-width="1.37143" stroke-miterlimit="10" stroke-linecap="round" stroke-linejoin="round"/>
<path opacity="0.4" d="M16.1078 15.5711V15.2912C16.1078 14.3845 16.6679 13.9045 17.2279 13.5178C17.7745 13.1445 18.3211 12.6645 18.3211 11.7845C18.3211 10.5578 17.3345 9.57111 16.1078 9.57111C14.8812 9.57111 13.8945 10.5578 13.8945 11.7845" stroke="#DD2590" stroke-opacity="0.8" stroke-width="1.37143" stroke-linecap="round" stroke-linejoin="round"/>
<path opacity="0.4" d="M16.1018 18.7578H16.1138" stroke="#DD2590" stroke-opacity="0.8" stroke-width="1.37143" stroke-linecap="round" stroke-linejoin="round"/>
</svg>
