<svg width="24" height="24" viewBox="0 0 24 24" fill="none" xmlns="http://www.w3.org/2000/svg">
<path d="M8 5.74902C7.59 5.74902 7.25 5.40902 7.25 4.99902V1.99902C7.25 1.58902 7.59 1.24902 8 1.24902C8.41 1.24902 8.75 1.58902 8.75 1.99902V4.99902C8.75 5.40902 8.41 5.74902 8 5.74902Z" fill="white"/>
<path d="M16 5.74902C15.59 5.74902 15.25 5.40902 15.25 4.99902V1.99902C15.25 1.58902 15.59 1.24902 16 1.24902C16.41 1.24902 16.75 1.58902 16.75 1.99902V4.99902C16.75 5.40902 16.41 5.74902 16 5.74902Z" fill="white"/>
<path d="M15 13.749H7C6.59 13.749 6.25 13.409 6.25 12.999C6.25 12.589 6.59 12.249 7 12.249H15C15.41 12.249 15.75 12.589 15.75 12.999C15.75 13.409 15.41 13.749 15 13.749Z" fill="white"/>
<path d="M12 17.749H7C6.59 17.749 6.25 17.409 6.25 16.999C6.25 16.589 6.59 16.249 7 16.249H12C12.41 16.249 12.75 16.589 12.75 16.999C12.75 17.409 12.41 17.749 12 17.749Z" fill="white"/>
<path d="M15 22.749H9C3.38 22.749 2.25 20.099 2.25 15.819V9.64902C2.25 4.90902 3.85 2.97902 7.96 2.74902H16C16.01 2.74902 16.03 2.74902 16.04 2.74902C20.15 2.97902 21.75 4.90902 21.75 9.64902V15.819C21.75 20.099 20.62 22.749 15 22.749ZM8 4.24902C5.2 4.40902 3.75 5.28902 3.75 9.64902V15.819C3.75 19.649 4.48 21.249 9 21.249H15C19.52 21.249 20.25 19.649 20.25 15.819V9.64902C20.25 5.29902 18.81 4.40902 15.98 4.24902H8Z" fill="white"/>
</svg>
