<svg width="32" height="32" viewBox="0 0 32 32" fill="none" xmlns="http://www.w3.org/2000/svg">
<path d="M18.3065 4.67996L20.6532 9.37329C20.9732 10.0266 21.8265 10.6533 22.5465 10.7733L26.7999 11.48C29.5199 11.9333 30.1599 13.9066 28.1999 15.8533L24.8932 19.16C24.3332 19.72 24.0265 20.8 24.1999 21.5733L25.1465 25.6666C25.8932 28.9066 24.1732 30.16 21.3065 28.4666L17.3199 26.1066C16.5999 25.68 15.4132 25.68 14.6799 26.1066L10.6932 28.4666C7.83988 30.16 6.10655 28.8933 6.85321 25.6666L7.79988 21.5733C7.97321 20.8 7.66655 19.72 7.10655 19.16L3.79988 15.8533C1.85321 13.9066 2.47988 11.9333 5.19988 11.48L9.45321 10.7733C10.1599 10.6533 11.0132 10.0266 11.3332 9.37329L13.6799 4.67996C14.9599 2.13329 17.0399 2.13329 18.3065 4.67996Z" stroke="#6651D1" stroke-width="2.5" stroke-linecap="round" stroke-linejoin="round"/>
</svg>
