<svg width="24" height="25" viewBox="0 0 24 25" fill="none" xmlns="http://www.w3.org/2000/svg">
<path d="M12 23.7357C11.3 23.7357 10.59 23.4657 10.06 22.9357L8.34998 21.2457C7.92998 20.8257 7.35001 20.5957 6.76001 20.5957H6C3.93 20.5957 2.25 18.9257 2.25 16.8757V5.95572C2.25 3.90572 3.93 2.23572 6 2.23572H18C20.07 2.23572 21.75 3.90572 21.75 5.95572V16.8657C21.75 18.9157 20.07 20.5857 18 20.5857H17.24C16.65 20.5857 16.07 20.8257 15.65 21.2357L13.94 22.9257C13.41 23.4657 12.7 23.7357 12 23.7357ZM6 3.73572C4.76 3.73572 3.75 4.73572 3.75 5.95572V16.8657C3.75 18.0957 4.76 19.0857 6 19.0857H6.76001C7.75001 19.0857 8.70997 19.4857 9.40997 20.1757L11.12 21.8657C11.61 22.3457 12.4 22.3457 12.89 21.8657L14.6 20.1757C15.3 19.4857 16.26 19.0857 17.25 19.0857H18C19.24 19.0857 20.25 18.0857 20.25 16.8657V5.95572C20.25 4.72572 19.24 3.73572 18 3.73572H6Z" fill="white"/>
<path d="M12.0698 10.6856C12.0498 10.6856 12.0198 10.6856 11.9998 10.6856C11.9698 10.6856 11.9298 10.6856 11.8998 10.6856C10.4398 10.6356 9.2998 9.45564 9.2998 7.98564C9.2998 6.49564 10.5098 5.28564 11.9998 5.28564C13.4898 5.28564 14.6998 6.49564 14.6998 7.98564C14.6898 9.45564 13.5498 10.6356 12.0898 10.6856C12.0898 10.6856 12.0798 10.6856 12.0698 10.6856ZM11.9998 6.78564C11.3398 6.78564 10.7998 7.32564 10.7998 7.98564C10.7998 8.63564 11.3098 9.16564 11.9498 9.18564C11.9498 9.17564 12.0098 9.17564 12.0798 9.18564C12.7098 9.14564 13.1998 8.62564 13.1998 7.98564C13.1998 7.32564 12.6598 6.78564 11.9998 6.78564Z" fill="white"/>
<path d="M12 17.6857C10.86 17.6857 9.72002 17.3857 8.83002 16.7957C7.99002 16.2357 7.5 15.4257 7.5 14.5657C7.5 13.7057 7.98002 12.8857 8.83002 12.3257C10.61 11.1457 13.39 11.1457 15.16 12.3257C16 12.8857 16.49 13.7057 16.49 14.5557C16.49 15.4157 16.01 16.2257 15.16 16.7957C14.28 17.3957 13.14 17.6857 12 17.6857ZM9.65997 13.5757C9.22997 13.8657 9 14.2157 9 14.5657C9 14.9157 9.23997 15.2657 9.65997 15.5557C10.93 16.4057 13.06 16.4057 14.33 15.5557C14.76 15.2657 15 14.9157 14.99 14.5657C14.99 14.2157 14.75 13.8657 14.33 13.5757C13.07 12.7257 10.93 12.7257 9.65997 13.5757Z" fill="white"/>
</svg>
