<svg width="33" height="33" viewBox="0 0 33 33" fill="none" xmlns="http://www.w3.org/2000/svg">
<path d="M16.1078 16.5755C19.7897 16.5755 22.7745 13.5908 22.7745 9.90885C22.7745 6.22696 19.7897 3.24219 16.1078 3.24219C12.4259 3.24219 9.44116 6.22696 9.44116 9.90885C9.44116 13.5908 12.4259 16.5755 16.1078 16.5755Z" stroke="#039855" stroke-width="2" stroke-linecap="round" stroke-linejoin="round"/>
<path d="M25.7212 21.5622L21.0012 26.2823C20.8145 26.4689 20.6412 26.8156 20.6012 27.0689L20.3479 28.8689C20.2545 29.5222 20.7079 29.9755 21.3612 29.8822L23.1612 29.6289C23.4145 29.5889 23.7746 29.4156 23.9479 29.2289L28.6679 24.5089C29.4812 23.6956 29.8679 22.7489 28.6679 21.5489C27.4812 20.3622 26.5346 20.7489 25.7212 21.5622Z" stroke="#039855" stroke-width="2" stroke-miterlimit="10" stroke-linecap="round" stroke-linejoin="round"/>
<path d="M25.0415 22.2422C25.4415 23.6822 26.5615 24.8021 28.0015 25.2021" stroke="#039855" stroke-width="2" stroke-miterlimit="10" stroke-linecap="round" stroke-linejoin="round"/>
<path opacity="0.4" d="M4.65454 29.9089C4.65454 24.7489 9.78791 20.5755 16.1079 20.5755C17.4946 20.5755 18.8279 20.7755 20.0679 21.1489" stroke="#039855" stroke-width="2" stroke-linecap="round" stroke-linejoin="round"/>
</svg>
